<?xml version="1.0" encoding="UTF-8"?>
<svg id="Layer_1" data-name="Layer 1" xmlns="http://www.w3.org/2000/svg" viewBox="0 0 500 500">
  <defs>
    <style>
      .cls-1 {
        fill: #0a0a0a;
      }
    </style>
  </defs>
  <polygon class="cls-1" points="419.63 374.4 419.63 148.22 374.42 148.22 295.24 305.25 216.07 148.22 170.84 148.22 170.84 374.4 216.07 374.4 216.07 238.69 283.93 374.4 306.54 374.4 374.4 238.69 374.4 374.4 419.63 374.4"/>
  <rect class="cls-1" x="170.84" y="170.84" width="22.62" height="22.62"/>
  <rect class="cls-1" x="125.6" y="170.84" width="22.62" height="22.62"/>
  <rect class="cls-1" x="102.99" y="170.84" width="22.62" height="22.62"/>
  <rect class="cls-1" x="102.99" y="125.6" width="22.62" height="22.62"/>
  <rect class="cls-1" x="170.84" y="193.46" width="22.62" height="22.62"/>
  <rect class="cls-1" x="148.22" y="193.46" width="22.62" height="22.62"/>
  <rect class="cls-1" x="125.6" y="193.46" width="22.62" height="22.62"/>
  <rect class="cls-1" x="80.37" y="193.46" width="22.62" height="22.62"/>
  <rect class="cls-1" x="148.22" y="216.07" width="22.62" height="22.62"/>
  <rect class="cls-1" x="170.84" y="216.07" width="22.62" height="22.62"/>
  <rect class="cls-1" x="102.99" y="216.07" width="22.62" height="22.62"/>
  <rect class="cls-1" x="125.6" y="238.69" width="22.62" height="22.62"/>
  <rect class="cls-1" x="170.84" y="261.31" width="22.62" height="22.62"/>
  <rect class="cls-1" x="148.22" y="148.22" width="22.62" height="22.62"/>
  <rect class="cls-1" x="80.37" y="148.22" width="22.62" height="22.62"/>
</svg>