<?xml version="1.0" encoding="UTF-8"?>
<svg id="Layer_1" data-name="Layer 1" xmlns="http://www.w3.org/2000/svg" xmlns:xlink="http://www.w3.org/1999/xlink" viewBox="0 0 500 500">
  <defs>
    <style>
      .cls-1 {
        fill: #81141f;
      }

      .cls-2 {
        fill: #881722;
      }

      .cls-3 {
        fill: #891622;
      }

      .cls-4 {
        fill: #9a1926;
      }

      .cls-5 {
        fill: #4a1114;
      }

      .cls-6 {
        fill: #b71e30;
      }

      .cls-7 {
        fill: #8d1722;
      }

      .cls-8 {
        fill: #b51d2f;
      }

      .cls-9 {
        fill: #b71e2f;
      }

      .cls-10 {
        fill: #79141e;
      }

      .cls-11 {
        fill: #ab1b2c;
      }

      .cls-12 {
        fill: #6f131b;
      }

      .cls-13 {
        fill: url(#linear-gradient);
      }

      .cls-14 {
        fill: #a41a2a;
      }

      .cls-15 {
        fill: #b81e30;
      }
    </style>
    <linearGradient id="linear-gradient" x1="161.65" y1="217.87" x2="338.35" y2="217.87" gradientUnits="userSpaceOnUse">
      <stop offset="0" stop-color="#be1e2d"/>
      <stop offset="1" stop-color="#831925"/>
    </linearGradient>
  </defs>
  <g>
    <polygon class="cls-13" points="338.35 298.19 338.35 137.56 306.24 137.56 250 249.08 193.78 137.56 161.65 137.56 161.65 298.19 193.78 298.19 193.78 201.81 241.97 298.19 258.03 298.19 306.22 201.81 306.22 298.19 338.35 298.19"/>
    <rect class="cls-5" x="161.65" y="153.62" width="16.06" height="16.06"/>
    <rect class="cls-7" x="129.53" y="153.62" width="16.06" height="16.06"/>
    <rect class="cls-7" x="113.46" y="153.62" width="16.06" height="16.06"/>
    <rect class="cls-7" x="113.46" y="121.49" width="16.06" height="16.06"/>
    <rect class="cls-9" x="161.65" y="169.68" width="16.06" height="16.06"/>
    <rect class="cls-14" x="145.59" y="169.68" width="16.06" height="16.06"/>
    <rect class="cls-6" x="129.53" y="169.68" width="16.06" height="16.06"/>
    <rect class="cls-10" x="97.4" y="169.68" width="16.06" height="16.06"/>
    <rect class="cls-1" x="145.59" y="185.75" width="16.06" height="16.06"/>
    <rect class="cls-2" x="161.65" y="185.75" width="16.06" height="16.06"/>
    <rect class="cls-11" x="113.46" y="185.75" width="16.06" height="16.06"/>
    <rect class="cls-3" x="129.53" y="201.81" width="16.06" height="16.06"/>
    <rect class="cls-4" x="161.65" y="217.87" width="16.06" height="16.06"/>
    <rect class="cls-12" x="145.59" y="137.56" width="16.06" height="16.06"/>
    <rect class="cls-8" x="97.4" y="137.56" width="16.06" height="16.06"/>
  </g>
  <g>
    <path class="cls-15" d="m91.4,330.79l17.28,32.76,17-32.76h10.06v47.18h-10.06v-27.63l-14.22,27.63h-5.9l-14.15-27.63v27.63h-10.06v-47.18h10.06Z"/>
    <path class="cls-15" d="m141.63,354.44c0-6.65,2.43-12.33,7.29-17.05,4.86-4.72,10.71-7.08,17.55-7.08s12.69,2.36,17.52,7.08c4.83,4.72,7.27,10.4,7.32,17.05v.2c0,6.52-2.41,12.11-7.22,16.78-4.9,4.72-10.78,7.08-17.62,7.08s-12.7-2.35-17.55-7.04c-4.86-4.69-7.29-10.37-7.29-17.02Zm10.41,0c0,4.09,1.39,7.55,4.16,10.38,2.73,2.83,6.15,4.25,10.27,4.25s7.55-1.42,10.3-4.25c2.75-2.83,4.13-6.29,4.13-10.38s-1.38-7.56-4.13-10.41c-2.75-2.85-6.19-4.28-10.3-4.28s-7.49,1.43-10.27,4.28c-2.78,2.85-4.16,6.32-4.16,10.41Z"/>
    <path class="cls-15" d="m195.81,354.44c0-6.65,2.43-12.33,7.29-17.05,4.86-4.72,10.71-7.08,17.55-7.08s12.69,2.36,17.52,7.08c4.83,4.72,7.27,10.4,7.32,17.05v.2c0,6.52-2.41,12.11-7.22,16.78-4.9,4.72-10.78,7.08-17.62,7.08s-12.7-2.35-17.55-7.04c-4.86-4.69-7.29-10.37-7.29-17.02Zm10.41,0c0,4.09,1.39,7.55,4.16,10.38,2.73,2.83,6.15,4.25,10.27,4.25s7.55-1.42,10.3-4.25c2.75-2.83,4.13-6.29,4.13-10.38s-1.38-7.56-4.13-10.41c-2.75-2.85-6.19-4.28-10.3-4.28s-7.49,1.43-10.27,4.28c-2.78,2.85-4.16,6.32-4.16,10.41Z"/>
    <path class="cls-15" d="m251.04,377.97v-47.18h21.44c4.76,0,8.82,1.62,12.18,4.85,3.35,3.24,5.03,7.05,5.03,11.46,0,3.06-.89,5.89-2.67,8.49-1.78,2.61-4.13,4.47-7.04,5.59l10.41,16.78h-11.1l-9.64-15.5h-8.19v15.5h-10.41Zm21.44-24.26c1.99,0,3.68-.67,5.06-2.02,1.39-1.35,2.08-2.99,2.08-4.92s-.69-3.56-2.08-4.89c-1.39-1.32-3.08-1.99-5.06-1.99h-11.03v13.82h11.03Z"/>
    <path class="cls-15" d="m294.89,368.53v-37.74h35.18v9.37h-24.77v9.64h21.99v9.17h-21.99v9.64h24.77v9.37h-29.49l-5.69-9.44Z"/>
    <path class="cls-15" d="m355.6,377.97l18.59-47.18h10.68l19.15,47.18h-10.75l-3.54-9.1h-19.98l-3.4,9.1h-10.75Zm17.35-17.86h13.39l-6.87-17.52-6.52,17.52Zm38.71,17.86l-3.4-8.36v-38.82h10.41v47.18h-7.01Z"/>
  </g>
</svg>